# xmcd
#
# Track frame offsets: 
#        150
#        20067
#        37460
#        59739
#        79597
#        100871
#        116301
#        130891
#
# Disc length: 1950 seconds
#
# Revision: 1
# Processed by: cddbd v1.5.2PL0 Copyright (c) Steve Scherf et al.
# Submitted via: ExactAudioCopyFreeDBPlugin 1.0
#
DISCID=6d079c08
DTITLE=The Duncans - Gonna Stay In Love (2014 Remastered)
DYEAR=1981
DGENRE=Soul
TTITLE0=Gonna Stay In Love
TTITLE1=Communication
TTITLE2=Let Me Be
TTITLE3=Take The Heat
TTITLE4=Too Damn Hot
TTITLE5=If This Ain't Love
TTITLE6=Your Love Still Brings Me To My Knees
TTITLE7=Lovin' You Baby
EXTD=YEAR: 1981
EXTT0=
EXTT1=
EXTT2=
EXTT3=
EXTT4=
EXTT5=
EXTT6=
EXTT7=
PLAYORDER=
